<mxfile host="www.draw.io" modified="2019-11-20T18:44:13.220Z" agent="Mozilla/5.0 (Windows NT 10.0; Win64; x64) AppleWebKit/537.36 (KHTML, like Gecko) Chrome/78.0.3904.97 Safari/537.36" etag="0Sjn9_BCPn6hg4FXMGDQ" version="12.2.7" type="github" pages="1">
  <diagram id="tdgsSn6MBYifOmbUvM1O" name="Page-1">
    <mxGraphModel dx="1024" dy="566" grid="1" gridSize="10" guides="1" tooltips="1" connect="1" arrows="1" fold="1" page="1" pageScale="1" pageWidth="827" pageHeight="1169" math="0" shadow="0">
      <root>
        <mxCell id="0"/>
        <mxCell id="1" parent="0"/>
        <mxCell id="RfD7f8O184MrSpGz2rtI-1" value="Paciente" style="swimlane;fontStyle=1;align=center;verticalAlign=top;childLayout=stackLayout;horizontal=1;startSize=26;horizontalStack=0;resizeParent=1;resizeParentMax=0;resizeLast=0;collapsible=1;marginBottom=0;" parent="1" vertex="1">
          <mxGeometry x="80" y="210" width="160" height="340" as="geometry"/>
        </mxCell>
        <mxCell id="RfD7f8O184MrSpGz2rtI-2" value="+ id_: int&#xa;+ nombre_: string&#xa;+ apellidos_: string&#xa;+ direccion_: string&#xa;+ fechanacimiento_: fecha&#xa;+ telefono_: int&#xa;+ codpostal_: int&#xa;+ tipo_: int" style="text;strokeColor=none;fillColor=none;align=left;verticalAlign=top;spacingLeft=4;spacingRight=4;overflow=hidden;rotatable=0;points=[[0,0.5],[1,0.5]];portConstraint=eastwest;" parent="RfD7f8O184MrSpGz2rtI-1" vertex="1">
          <mxGeometry y="26" width="160" height="124" as="geometry"/>
        </mxCell>
        <mxCell id="RfD7f8O184MrSpGz2rtI-3" value="" style="line;strokeWidth=1;fillColor=none;align=left;verticalAlign=middle;spacingTop=-1;spacingLeft=3;spacingRight=3;rotatable=0;labelPosition=right;points=[];portConstraint=eastwest;" parent="RfD7f8O184MrSpGz2rtI-1" vertex="1">
          <mxGeometry y="150" width="160" height="8" as="geometry"/>
        </mxCell>
        <mxCell id="RfD7f8O184MrSpGz2rtI-4" value="+ get &quot;----&quot;&#xa;+ set &quot;----&quot;&#xa;+ mostrarPaciente()&#xa;+ mostrarHCitas()&#xa;+ mostrarTratamientos()&#xa;+ mostrarHNotas()&#xa;+ mostrarHistorial()&#xa;+ addCita()&#xa;+ addTratamiento()&#xa;+ addNota()&#xa;+ guardarPaciente()&#xa;+ borrarPaciente()" style="text;strokeColor=none;fillColor=none;align=left;verticalAlign=top;spacingLeft=4;spacingRight=4;overflow=hidden;rotatable=0;points=[[0,0.5],[1,0.5]];portConstraint=eastwest;" parent="RfD7f8O184MrSpGz2rtI-1" vertex="1">
          <mxGeometry y="158" width="160" height="182" as="geometry"/>
        </mxCell>
        <mxCell id="RfD7f8O184MrSpGz2rtI-5" value="Nota" style="swimlane;fontStyle=1;align=center;verticalAlign=top;childLayout=stackLayout;horizontal=1;startSize=26;horizontalStack=0;resizeParent=1;resizeParentMax=0;resizeLast=0;collapsible=1;marginBottom=0;" parent="1" vertex="1">
          <mxGeometry x="640" y="541.5" width="160" height="86" as="geometry"/>
        </mxCell>
        <mxCell id="RfD7f8O184MrSpGz2rtI-6" value="+ nota_: string" style="text;strokeColor=none;fillColor=none;align=left;verticalAlign=top;spacingLeft=4;spacingRight=4;overflow=hidden;rotatable=0;points=[[0,0.5],[1,0.5]];portConstraint=eastwest;" parent="RfD7f8O184MrSpGz2rtI-5" vertex="1">
          <mxGeometry y="26" width="160" height="26" as="geometry"/>
        </mxCell>
        <mxCell id="RfD7f8O184MrSpGz2rtI-7" value="" style="line;strokeWidth=1;fillColor=none;align=left;verticalAlign=middle;spacingTop=-1;spacingLeft=3;spacingRight=3;rotatable=0;labelPosition=right;points=[];portConstraint=eastwest;" parent="RfD7f8O184MrSpGz2rtI-5" vertex="1">
          <mxGeometry y="52" width="160" height="8" as="geometry"/>
        </mxCell>
        <mxCell id="RfD7f8O184MrSpGz2rtI-8" value="+ setNota(): void" style="text;strokeColor=none;fillColor=none;align=left;verticalAlign=top;spacingLeft=4;spacingRight=4;overflow=hidden;rotatable=0;points=[[0,0.5],[1,0.5]];portConstraint=eastwest;" parent="RfD7f8O184MrSpGz2rtI-5" vertex="1">
          <mxGeometry y="60" width="160" height="26" as="geometry"/>
        </mxCell>
        <mxCell id="RfD7f8O184MrSpGz2rtI-9" value="Tratamiento" style="swimlane;fontStyle=1;align=center;verticalAlign=top;childLayout=stackLayout;horizontal=1;startSize=26;horizontalStack=0;resizeParent=1;resizeParentMax=0;resizeLast=0;collapsible=1;marginBottom=0;" parent="1" vertex="1">
          <mxGeometry x="640" y="241" width="160" height="260" as="geometry"/>
        </mxCell>
        <mxCell id="RfD7f8O184MrSpGz2rtI-10" value="+ medicamento_: string&#xa;+ concentracion_: string&#xa;+ regularidad_: string&#xa;+ inicio_; fecha&#xa;+ final_: fecha&#xa;+ estado_: int&#xa;+comentario_: string" style="text;strokeColor=none;fillColor=none;align=left;verticalAlign=top;spacingLeft=4;spacingRight=4;overflow=hidden;rotatable=0;points=[[0,0.5],[1,0.5]];portConstraint=eastwest;" parent="RfD7f8O184MrSpGz2rtI-9" vertex="1">
          <mxGeometry y="26" width="160" height="114" as="geometry"/>
        </mxCell>
        <mxCell id="RfD7f8O184MrSpGz2rtI-11" value="" style="line;strokeWidth=1;fillColor=none;align=left;verticalAlign=middle;spacingTop=-1;spacingLeft=3;spacingRight=3;rotatable=0;labelPosition=right;points=[];portConstraint=eastwest;" parent="RfD7f8O184MrSpGz2rtI-9" vertex="1">
          <mxGeometry y="140" width="160" height="8" as="geometry"/>
        </mxCell>
        <mxCell id="RfD7f8O184MrSpGz2rtI-12" value="setMedicamento(): void&#xa;setConcentracion(): void&#xa;setRegularidad(): void&#xa;setInicio(): void&#xa;setFina(): void&#xa;setEstado(): void&#xa;setComentario(): void" style="text;strokeColor=none;fillColor=none;align=left;verticalAlign=top;spacingLeft=4;spacingRight=4;overflow=hidden;rotatable=0;points=[[0,0.5],[1,0.5]];portConstraint=eastwest;" parent="RfD7f8O184MrSpGz2rtI-9" vertex="1">
          <mxGeometry y="148" width="160" height="112" as="geometry"/>
        </mxCell>
        <mxCell id="RfD7f8O184MrSpGz2rtI-13" value="Cita" style="swimlane;fontStyle=1;align=center;verticalAlign=top;childLayout=stackLayout;horizontal=1;startSize=26;horizontalStack=0;resizeParent=1;resizeParentMax=0;resizeLast=0;collapsible=1;marginBottom=0;" parent="1" vertex="1">
          <mxGeometry x="640" y="110" width="160" height="90" as="geometry"/>
        </mxCell>
        <mxCell id="RfD7f8O184MrSpGz2rtI-14" value="+ comentario_: string" style="text;strokeColor=none;fillColor=none;align=left;verticalAlign=top;spacingLeft=4;spacingRight=4;overflow=hidden;rotatable=0;points=[[0,0.5],[1,0.5]];portConstraint=eastwest;" parent="RfD7f8O184MrSpGz2rtI-13" vertex="1">
          <mxGeometry y="26" width="160" height="26" as="geometry"/>
        </mxCell>
        <mxCell id="RfD7f8O184MrSpGz2rtI-15" value="" style="line;strokeWidth=1;fillColor=none;align=left;verticalAlign=middle;spacingTop=-1;spacingLeft=3;spacingRight=3;rotatable=0;labelPosition=right;points=[];portConstraint=eastwest;" parent="RfD7f8O184MrSpGz2rtI-13" vertex="1">
          <mxGeometry y="52" width="160" height="8" as="geometry"/>
        </mxCell>
        <mxCell id="RfD7f8O184MrSpGz2rtI-16" value="+ setComentario(): void" style="text;strokeColor=none;fillColor=none;align=left;verticalAlign=top;spacingLeft=4;spacingRight=4;overflow=hidden;rotatable=0;points=[[0,0.5],[1,0.5]];portConstraint=eastwest;" parent="RfD7f8O184MrSpGz2rtI-13" vertex="1">
          <mxGeometry y="60" width="160" height="30" as="geometry"/>
        </mxCell>
        <mxCell id="RfD7f8O184MrSpGz2rtI-17" value="Registro" style="swimlane;fontStyle=1;align=center;verticalAlign=top;childLayout=stackLayout;horizontal=1;startSize=26;horizontalStack=0;resizeParent=1;resizeParentMax=0;resizeLast=0;collapsible=1;marginBottom=0;" parent="1" vertex="1">
          <mxGeometry x="360" y="270" width="160" height="170" as="geometry"/>
        </mxCell>
        <mxCell id="RfD7f8O184MrSpGz2rtI-18" value="+ fecha_: fecha&#xa;+ hora_: hora&#xa;+ pacient_: int" style="text;strokeColor=none;fillColor=none;align=left;verticalAlign=top;spacingLeft=4;spacingRight=4;overflow=hidden;rotatable=0;points=[[0,0.5],[1,0.5]];portConstraint=eastwest;" parent="RfD7f8O184MrSpGz2rtI-17" vertex="1">
          <mxGeometry y="26" width="160" height="54" as="geometry"/>
        </mxCell>
        <mxCell id="RfD7f8O184MrSpGz2rtI-19" value="" style="line;strokeWidth=1;fillColor=none;align=left;verticalAlign=middle;spacingTop=-1;spacingLeft=3;spacingRight=3;rotatable=0;labelPosition=right;points=[];portConstraint=eastwest;" parent="RfD7f8O184MrSpGz2rtI-17" vertex="1">
          <mxGeometry y="80" width="160" height="8" as="geometry"/>
        </mxCell>
        <mxCell id="RfD7f8O184MrSpGz2rtI-20" value="+ getFecha(): fecha&#xa;+ getHora(): hora&#xa;+ mostrarRegistro(): void&#xa;+ modificable(): bool&#xa;+ borrar(): bool" style="text;strokeColor=none;fillColor=none;align=left;verticalAlign=top;spacingLeft=4;spacingRight=4;overflow=hidden;rotatable=0;points=[[0,0.5],[1,0.5]];portConstraint=eastwest;" parent="RfD7f8O184MrSpGz2rtI-17" vertex="1">
          <mxGeometry y="88" width="160" height="82" as="geometry"/>
        </mxCell>
        <mxCell id="RfD7f8O184MrSpGz2rtI-27" value="1.1" style="endArrow=open;html=1;endSize=12;startArrow=diamondThin;startSize=14;startFill=0;edgeStyle=orthogonalEdgeStyle;align=left;verticalAlign=bottom;" parent="1" edge="1">
          <mxGeometry x="0.6667" y="9" relative="1" as="geometry">
            <mxPoint x="240" y="359" as="sourcePoint"/>
            <mxPoint x="360" y="359" as="targetPoint"/>
            <mxPoint as="offset"/>
          </mxGeometry>
        </mxCell>
        <mxCell id="RfD7f8O184MrSpGz2rtI-28" value="" style="html=1;verticalAlign=bottom;endArrow=open;dashed=1;endFill=0;" parent="1" edge="1">
          <mxGeometry width="80" relative="1" as="geometry">
            <mxPoint x="640" y="600" as="sourcePoint"/>
            <mxPoint x="520" y="360" as="targetPoint"/>
            <Array as="points">
              <mxPoint x="560" y="600"/>
              <mxPoint x="560" y="360"/>
            </Array>
          </mxGeometry>
        </mxCell>
        <mxCell id="RfD7f8O184MrSpGz2rtI-29" value="" style="html=1;verticalAlign=bottom;endArrow=open;dashed=1;endFill=0;" parent="1" edge="1">
          <mxGeometry width="80" relative="1" as="geometry">
            <mxPoint x="640" y="360" as="sourcePoint"/>
            <mxPoint x="520" y="360" as="targetPoint"/>
          </mxGeometry>
        </mxCell>
        <mxCell id="RfD7f8O184MrSpGz2rtI-30" value="" style="html=1;verticalAlign=bottom;endArrow=open;dashed=1;endFill=0;" parent="1" edge="1">
          <mxGeometry width="80" relative="1" as="geometry">
            <mxPoint x="640" y="160" as="sourcePoint"/>
            <mxPoint x="520" y="360" as="targetPoint"/>
            <Array as="points">
              <mxPoint x="560" y="160"/>
              <mxPoint x="560" y="360"/>
            </Array>
          </mxGeometry>
        </mxCell>
        <mxCell id="RfD7f8O184MrSpGz2rtI-31" value="0.*" style="text;strokeColor=none;fillColor=none;align=left;verticalAlign=top;spacingLeft=4;spacingRight=4;overflow=hidden;rotatable=0;points=[[0,0.5],[1,0.5]];portConstraint=eastwest;" parent="1" vertex="1">
          <mxGeometry x="240" y="329" width="100" height="26" as="geometry"/>
        </mxCell>
      </root>
    </mxGraphModel>
  </diagram>
</mxfile>
